<?xml version="1.0" encoding="UTF-8" standalone="no" ?>
<!DOCTYPE svg PUBLIC "-//W3C//DTD SVG 1.1//EN" "http://www.w3.org/Graphics/SVG/1.1/DTD/svg11.dtd">
<svg xmlns="http://www.w3.org/2000/svg" xmlns:xlink="http://www.w3.org/1999/xlink" version="1.1" width="1280" height="1024" viewBox="0 0 1280 1024" xml:space="preserve">
<desc>Created with Fabric.js 5.3.0</desc>
<defs>
</defs>
<g transform="matrix(1 0 0 1 640 512)" id="background-logo"  >
<rect style="stroke: none; stroke-width: 0; stroke-dasharray: none; stroke-linecap: butt; stroke-dashoffset: 0; stroke-linejoin: miter; stroke-miterlimit: 4; fill: rgb(4,31,30); fill-rule: nonzero; opacity: 1;"  paint-order="stroke"  x="-640" y="-512" rx="0" ry="0" width="1280" height="1024" />
</g>
<g transform="matrix(1.9211538461538462 0 0 1.9211538461538462 640 398.8763266138599)" id="logo-logo"  >
<g style=""  paint-order="stroke"   >
		<g transform="matrix(1.139009764206033 0 0 1.1390097642060328 0 0)"  >
<g style=""  paint-order="stroke"   >
		<g transform="matrix(1 0 0 1 0 0)"  >
<path style="stroke: none; stroke-width: 1; stroke-dasharray: none; stroke-linecap: butt; stroke-dashoffset: 0; stroke-linejoin: miter; stroke-miterlimit: 4; fill: rgb(205,139,83); fill-rule: nonzero; opacity: 1;"  paint-order="stroke"  transform=" translate(-92.91499999999999, -66.445)" d="M 181.67 56.32 C 178.58999999999997 41.32 168.76 27.59 153.89 17.53 C 137.29 6.3 115.52 0.12 92.58 0.12 C 69.64 0.12 47.88 6.3 31.27 17.53 C 16.41 27.59 6.58 41.34 3.5 56.32 L 0 56.32 L 0 76.57 L 3.5 76.57 C 6.58 91.57 16.41 105.3 31.27 115.35999999999999 C 47.879999999999995 126.57999999999998 69.65 132.76999999999998 92.58 132.76999999999998 C 115.50999999999999 132.76999999999998 137.29 126.57999999999998 153.89 115.35999999999999 C 168.36999999999998 105.57 178.46999999999997 91.45999999999998 181.70999999999998 76.57 L 185.82999999999998 76.57 L 185.82999999999998 56.32 Z M 32.33 19.09 C 48.63 8.08 70 2 92.58 2 C 115.16 2 136.57999999999998 8.07 152.84 19.08 C 167.17000000000002 28.779999999999998 176.69 41.959999999999994 179.76 56.309999999999995 L 166.07 56.309999999999995 C 159.07 32.589999999999996 128.32999999999998 15.449999999999996 92.58 15.449999999999996 C 57 15.46 26.1 32.64 19.1 56.32 L 5.43 56.32 C 8.5 42 18 28.78 32.33 19.09 Z M 160.8 76.57 L 164.08 76.57 C 163.86 77.25999999999999 163.62 77.94999999999999 163.37 78.63 Z M 22 79 L 21.14 76.57 L 25 76.57 Z M 1.89 74.68 L 1.89 58.21 L 26.2 58.21 L 26.2 74.68 Z M 152.89 113.79 C 136.58999999999997 124.79 115.18999999999998 130.88 92.63 130.88 C 70.07000000000001 130.88 48.67999999999999 124.81 32.379999999999995 113.78999999999999 C 18 104.1 8.5 90.92 5.43 76.57 L 19.12 76.57 C 19.55738711521791 78.07700409328369 20.08500613896787 79.5563409763295 20.699999999999992 81 L 21.12 82.17 L 21.2 82.10000000000001 C 31 102.93 59.67 117.46000000000001 92.58 117.46000000000001 C 128.32 117.46000000000001 159.05 100.33000000000001 166.07 76.61000000000001 L 179.75 76.79000000000002 C 176.47 91 166.72 104.41 152.84 113.79 Z M 183.98999999999998 74.68 L 159.63 74.68 L 159.63 58.21 L 183.94 58.21 Z" stroke-linecap="round" />
</g>
</g>
</g>
		<g transform="matrix(0 0.28806217191338424 -0.28806217191338424 0 36.43575184850863 19.877194723810703)"  >
<g style=""  paint-order="stroke"   >
		<g transform="matrix(1 0 0 1 0 0)"  >
<path style="stroke: none; stroke-width: 1; stroke-dasharray: none; stroke-linecap: butt; stroke-dashoffset: 0; stroke-linejoin: miter; stroke-miterlimit: 4; fill: rgb(4,31,30); fill-rule: nonzero; opacity: 1;"  paint-order="stroke"  transform=" translate(-88.9853662531041, -100.02)" d="M 177.9 99.35 C 177.97 89.00999999999999 174.9 78.83999999999999 174.54 77.63999999999999 C 173.9304446786373 93.76656295481676 170.03776036931853 109.59930778983428 163.09999999999997 124.16999999999999 C 161.5416418118268 127.21898489937995 160.26952349795707 130.405976043601 159.3 133.68999999999997 C 159.29999999999998 133.69 154.52999999999997 118.69 149.07 107.56 C 153.73 109.07000000000001 158.78 100.56 159.62 94.97 C 161.99009480801385 79.96576979758481 160.11974859196263 64.5977583890306 154.21999999999997 50.59999999999999 C 152.1089428649464 45.48061995530341 149.57344001820968 40.546758874911944 146.64 35.84999999999997 C 150.47 49.02 152.25 63.22 150.70999999999998 76.78 C 150.17999999999998 84.39 147.52999999999997 90.94 146.57999999999998 98.35 C 146.38703800223954 100.22102386017805 146.61949714826787 102.11146368008505 147.26 103.88 C 145.14 99.72 136.6 85.11 133.26 81.03 C 139.7 80.1 139.92999999999998 71.45 139.39 66.31 C 135.76 31.310000000000002 121.38999999999999 15.480000000000004 118.01999999999998 11.36 C 124.50999999999998 28.75 127.74999999999999 46.75 127.32999999999998 62.8 C 127.32999999999998 66.53 126.97999999999999 70.34 127.81999999999998 74.02 C 122.99792880009072 68.14320727821215 117.77548743562528 62.60668434736169 112.19 57.45 C 117.37999999999998 55.449999999999996 115.94999999999999 49.279999999999994 114.78999999999998 44.72 C 112.05118122444514 34.949835392410755 107.4127081167603 25.81561142650833 101.13999999999996 17.840000000000003 C 97.86999999999998 13.49 88.25999999999998 4.49 87.38999999999997 3.84 C 96.76999999999997 19.41 100.91999999999997 34.41 103.69999999999997 50.129999999999995 Q 98.75999999999998 46.129999999999995 93.50999999999998 42.47 C 97.50999999999998 39.74 95.16999999999997 35.1 93.09999999999998 31.71 C 86.30157010474122 20.234067068837362 77.04679356928446 10.40556268911611 65.99999999999996 2.92999999999995 C 71.86279311558366 13.290249968411338 77.1345555026019 23.973998947802507 81.78999999999985 34.92999999999986 Q 75.94 31.5 69.78999999999999 28.48 C 70.59 11.39 19.86 0.42 0 0 C 9.090330451349164 2.8347013037589828 18.002920222063544 6.210732872958063 26.689999999999813 10.109999999999957 C 32.92 12.94 57 27.28 60.39 28.63 C 62.4861430509593 29.631044212028993 64.82354465321424 30.015987205872165 67.13 29.739999999999995 Q 74.83999999999999 33.42 82.13 37.739999999999995 C 68.42999999999999 37.19 54.41 36.3 40.3 35.629999999999995 C 43.3 37.16 66.22999999999999 45.28999999999999 69.75 46.059999999999995 C 84.52 50.42999999999999 92.75 48.26 93.75 45.35999999999999 Q 99.81 49.67999999999999 105.43 54.46999999999999 C 103.4677328240496 54.14408143644429 101.47323955417016 54.056780384227345 99.49 54.209999999999994 C 87.41000000000001 54.49999999999999 74.86000000000001 54.75999999999999 62.790000000000006 55.49999999999999 C 67.11000000000001 57.15999999999999 93.67 65.33 104.79 65.77999999999999 C 108.25 65.91999999999999 112.25 65.21 113.10000000000001 61.43999999999998 C 117.35547986653616 65.55185621417228 121.38473487131006 69.89156748691963 125.16999999999997 74.43999999999993 C 124.53000000000002 73.67999999999998 114.78000000000002 72.75999999999998 110.17000000000002 72.43999999999998 C 98.67000000000002 71.89999999999998 84.69000000000001 71.43999999999998 73.45000000000002 69.86999999999999 C 74.94000000000001 70.71 123.63000000000002 92.52999999999999 130.29000000000002 80.94999999999999 C 130.58 80.43999999999998 136.8 89.78999999999999 143.19000000000003 101.08999999999999 C 139.19000000000003 98.54999999999998 134.70000000000002 97.72999999999999 130.31000000000003 96.24999999999999 Q 125.09000000000003 94.84999999999998 119.80000000000003 93.50999999999999 C 111.31115071170821 91.55462804197866 102.68654330304074 90.24422257523538 94.00000000000006 89.59 C 104.8 94.87 126.78 105.80000000000001 137.35 110.87 C 140.66 112.46000000000001 145.35 113.45 147.85999999999999 110.37 C 150.92999999999998 116.81 156.98 133.83 156.92 133.75 C 154.51 130.24 149.01 128.06 138.14999999999998 123.88 C 128.95999999999998 120.33999999999999 110.14999999999998 108.32 110.14999999999998 108.32 C 110.87999999999998 110.71 150.54999999999998 151.57 159.51999999999998 143.04 C 159.51999999999998 143.04 165.83999999999997 164.22 164.24999999999997 200.04 L 166.55999999999997 200.04 C 168.01999999999998 166.28 161.62999999999997 142.13 161.62999999999997 142.13 C 170.62999999999997 145.31 174.62999999999997 126.33 176.16999999999996 120.06 C 177.60467726574328 113.25532687567872 178.18582133162585 106.29839415635644 177.9 99.34999999999998 Z" stroke-linecap="round" />
</g>
</g>
</g>
		<g transform="matrix(0 0.3137600244259916 0.3137600244259917 0 -33.865966597247905 17.590085850188643)"  >
<g style=""  paint-order="stroke"   >
		<g transform="matrix(1 0 0 1 0 0)"  >
<path style="stroke: none; stroke-width: 1; stroke-dasharray: none; stroke-linecap: butt; stroke-dashoffset: 0; stroke-linejoin: miter; stroke-miterlimit: 4; fill: rgb(4,31,30); fill-rule: nonzero; opacity: 1;"  paint-order="stroke"  transform=" translate(-88.9853662531041, -100.02)" d="M 177.9 99.35 C 177.97 89.00999999999999 174.9 78.83999999999999 174.54 77.63999999999999 C 173.9304446786373 93.76656295481676 170.03776036931853 109.59930778983428 163.09999999999997 124.16999999999999 C 161.5416418118268 127.21898489937995 160.26952349795707 130.405976043601 159.3 133.68999999999997 C 159.29999999999998 133.69 154.52999999999997 118.69 149.07 107.56 C 153.73 109.07000000000001 158.78 100.56 159.62 94.97 C 161.99009480801385 79.96576979758481 160.11974859196263 64.5977583890306 154.21999999999997 50.59999999999999 C 152.1089428649464 45.48061995530341 149.57344001820968 40.546758874911944 146.64 35.84999999999997 C 150.47 49.02 152.25 63.22 150.70999999999998 76.78 C 150.17999999999998 84.39 147.52999999999997 90.94 146.57999999999998 98.35 C 146.38703800223954 100.22102386017805 146.61949714826787 102.11146368008505 147.26 103.88 C 145.14 99.72 136.6 85.11 133.26 81.03 C 139.7 80.1 139.92999999999998 71.45 139.39 66.31 C 135.76 31.310000000000002 121.38999999999999 15.480000000000004 118.01999999999998 11.36 C 124.50999999999998 28.75 127.74999999999999 46.75 127.32999999999998 62.8 C 127.32999999999998 66.53 126.97999999999999 70.34 127.81999999999998 74.02 C 122.99792880009072 68.14320727821215 117.77548743562528 62.60668434736169 112.19 57.45 C 117.37999999999998 55.449999999999996 115.94999999999999 49.279999999999994 114.78999999999998 44.72 C 112.05118122444514 34.949835392410755 107.4127081167603 25.81561142650833 101.13999999999996 17.840000000000003 C 97.86999999999998 13.49 88.25999999999998 4.49 87.38999999999997 3.84 C 96.76999999999997 19.41 100.91999999999997 34.41 103.69999999999997 50.129999999999995 Q 98.75999999999998 46.129999999999995 93.50999999999998 42.47 C 97.50999999999998 39.74 95.16999999999997 35.1 93.09999999999998 31.71 C 86.30157010474122 20.234067068837362 77.04679356928446 10.40556268911611 65.99999999999996 2.92999999999995 C 71.86279311558366 13.290249968411338 77.1345555026019 23.973998947802507 81.78999999999985 34.92999999999986 Q 75.94 31.5 69.78999999999999 28.48 C 70.59 11.39 19.86 0.42 0 0 C 9.090330451349164 2.8347013037589828 18.002920222063544 6.210732872958063 26.689999999999813 10.109999999999957 C 32.92 12.94 57 27.28 60.39 28.63 C 62.4861430509593 29.631044212028993 64.82354465321424 30.015987205872165 67.13 29.739999999999995 Q 74.83999999999999 33.42 82.13 37.739999999999995 C 68.42999999999999 37.19 54.41 36.3 40.3 35.629999999999995 C 43.3 37.16 66.22999999999999 45.28999999999999 69.75 46.059999999999995 C 84.52 50.42999999999999 92.75 48.26 93.75 45.35999999999999 Q 99.81 49.67999999999999 105.43 54.46999999999999 C 103.4677328240496 54.14408143644429 101.47323955417016 54.056780384227345 99.49 54.209999999999994 C 87.41000000000001 54.49999999999999 74.86000000000001 54.75999999999999 62.790000000000006 55.49999999999999 C 67.11000000000001 57.15999999999999 93.67 65.33 104.79 65.77999999999999 C 108.25 65.91999999999999 112.25 65.21 113.10000000000001 61.43999999999998 C 117.35547986653616 65.55185621417228 121.38473487131006 69.89156748691963 125.16999999999997 74.43999999999993 C 124.53000000000002 73.67999999999998 114.78000000000002 72.75999999999998 110.17000000000002 72.43999999999998 C 98.67000000000002 71.89999999999998 84.69000000000001 71.43999999999998 73.45000000000002 69.86999999999999 C 74.94000000000001 70.71 123.63000000000002 92.52999999999999 130.29000000000002 80.94999999999999 C 130.58 80.43999999999998 136.8 89.78999999999999 143.19000000000003 101.08999999999999 C 139.19000000000003 98.54999999999998 134.70000000000002 97.72999999999999 130.31000000000003 96.24999999999999 Q 125.09000000000003 94.84999999999998 119.80000000000003 93.50999999999999 C 111.31115071170821 91.55462804197866 102.68654330304074 90.24422257523538 94.00000000000006 89.59 C 104.8 94.87 126.78 105.80000000000001 137.35 110.87 C 140.66 112.46000000000001 145.35 113.45 147.85999999999999 110.37 C 150.92999999999998 116.81 156.98 133.83 156.92 133.75 C 154.51 130.24 149.01 128.06 138.14999999999998 123.88 C 128.95999999999998 120.33999999999999 110.14999999999998 108.32 110.14999999999998 108.32 C 110.87999999999998 110.71 150.54999999999998 151.57 159.51999999999998 143.04 C 159.51999999999998 143.04 165.83999999999997 164.22 164.24999999999997 200.04 L 166.55999999999997 200.04 C 168.01999999999998 166.28 161.62999999999997 142.13 161.62999999999997 142.13 C 170.62999999999997 145.31 174.62999999999997 126.33 176.16999999999996 120.06 C 177.60467726574328 113.25532687567872 178.18582133162585 106.29839415635644 177.9 99.34999999999998 Z" stroke-linecap="round" />
</g>
</g>
</g>
		<g transform="matrix(0.08523618113710565 0 0 0.08523618113710565 2.5145334516100775 39.52091541856825)"  >
<g style=""  paint-order="stroke"   >
		<g transform="matrix(1 0 0 1 0 0)"  >
<polygon style="stroke: none; stroke-width: 1; stroke-dasharray: none; stroke-linecap: butt; stroke-dashoffset: 0; stroke-linejoin: miter; stroke-miterlimit: 4; fill: rgb(4,31,30); fill-rule: nonzero; opacity: 1;"  paint-order="stroke"  points="100,-22.430000000000007 30.900000000000006,-32.46 0,-95 -30.900000000000006,-32.46 -100,-22.430000000000007 -50,26.260000000000005 -61.8,95 0,62.55000000000001 61.80000000000001,95 50,26.260000000000005 100,-22.430000000000007 " />
</g>
</g>
</g>
</g>
</g>
<g transform="matrix(1.9211538461538462 0 0 1.9211538461538462 642.2780081730768 640.7207485022795)" id="text-logo"  >
<g style=""  paint-order="stroke"   >
		<g transform="matrix(1 0 0 1 0 0)" id="text-logo-path-0"  >
<path style="stroke: none; stroke-width: 0.5425531914893617; stroke-dasharray: none; stroke-linecap: butt; stroke-dashoffset: 0; stroke-linejoin: miter; stroke-miterlimit: 4; fill: rgb(205,139,83); fill-rule: nonzero; opacity: 1;"  paint-order="stroke"  transform=" translate(-134.08, 18.385)" d="M 10.15 -0.51 L 10.15 0 L 25.04 0 L 25.04 -0.51 C 23.21 -0.51 21.17 -0.87 21.17 -2.81 L 21.17 -33.41 C 25.65 -33.41 29.07 -29.84 32.44 -29.84 C 32.33 -32.13 32.23 -33.41 34.17 -35.7 C 32.74 -35.7 30.96 -35.19 29.58 -35.19 L 5.61 -35.19 C 4.23 -35.19 2.45 -35.7 1.02 -35.7 C 2.96 -33.41 2.86 -32.13 2.75 -29.84 C 6.12 -29.84 9.54 -33.41 14.03 -33.41 L 14.03 -2.81 C 14.03 -0.87 11.99 -0.51 10.15 -0.51 Z M 42.28 -0.51 L 42.28 0 L 56.66 0 L 56.66 -0.51 C 54.83 -0.51 52.79 -0.87 52.79 -2.81 L 52.79 -11.17 C 53.7 -12.65 55.39 -13.82 57.32 -14.89 C 60.69 -15.25 64.01 -13.62 64.01 -8.72 L 64.01 -6.12 C 64.01 -1.38 67.83 0.51 71.91 0.51 C 74.36 0.51 75.68 -0.15 76.65 -1.53 C 76.3 -1.58 75.89 -1.89 75.53 -2.35 C 75.43 -1.33 74.56 -0.51 73.44 -0.51 C 71.3 -0.51 71.15 -4.08 71.15 -6.07 L 71.15 -9.79 C 71.15 -15.35 66.91 -17.29 62.88 -17.29 C 62.68 -17.29 62.42 -17.29 62.17 -17.24 C 66.76 -19.43 71.15 -21.83 71.15 -26.37 C 71.15 -32.13 65.18 -35.19 58.91 -35.19 L 42.28 -35.19 L 42.28 -34.68 C 44.12 -34.68 46.16 -34.32 46.16 -32.39 L 46.16 -2.81 C 46.16 -0.87 44.12 -0.51 42.28 -0.51 Z M 52.79 -14.28 L 52.79 -31.57 C 54.37 -32.79 55.85 -33.15 57.43 -33.15 C 61.3 -33.15 64.06 -29.68 64.06 -26.37 C 64.06 -19.28 56.61 -17.75 52.79 -14.28 Z M 116.13 -2.65 L 103.33 -37.28 L 100.62 -37.28 C 99.71 -35.14 98.53 -33.51 97.26 -33 L 97.72 -31.72 L 92.67 -17.9 L 91.04 -17.9 C 91.49 -17.6 91.9 -17.24 92.26 -16.88 L 87.06 -2.65 C 86.39 -0.82 84.05 -0.51 82.21 -0.51 L 82.21 0 L 90.83 0 L 90.83 -0.51 C 89.56 -0.51 88.43 -0.82 89.1 -2.65 L 93.69 -15.3 C 94.55 -14.13 95.12 -12.95 95.32 -11.93 C 96.24 -12.5 98.58 -12.6 99.71 -12.6 C 102.2 -12.6 103.38 -11.53 104.91 -9.59 L 106.79 -7.29 L 108.48 -2.7 C 109.14 -0.87 107.41 -0.56 105.57 -0.61 L 105.57 -0.1 L 119.8 0 L 119.8 -0.51 C 118.52 -0.51 116.79 -0.82 116.13 -2.65 Z M 97 -17.9 L 94.61 -17.9 L 98.69 -29.12 L 105.47 -10.91 L 102.2 -14.89 C 100.67 -16.83 99.5 -17.9 97 -17.9 Z M 127.4 -0.51 L 127.4 0 L 144.64 0 C 154.79 0 162.23 -6.48 162.33 -17.65 C 162.49 -28.15 155.65 -35.19 144.79 -35.19 L 127.4 -35.19 L 127.4 -34.68 C 129.23 -34.68 131.27 -34.32 131.27 -32.39 L 131.27 -2.81 C 131.27 -0.87 129.23 -0.51 127.4 -0.51 Z M 144.79 -1.84 L 138.41 -1.84 L 138.41 -33.41 L 144.64 -33.35 C 150.3 -33.35 154.68 -27.23 154.63 -17.6 C 154.68 -8.52 150.91 -1.84 144.79 -1.84 Z M 170.44 -0.51 L 170.44 0 L 185.33 0 L 185.33 -0.51 C 183.5 -0.51 181.46 -0.87 181.46 -2.81 L 181.46 -33.15 C 181.46 -34.53 181.46 -35.7 181.97 -37.23 C 180.03 -35.9 176.87 -35.24 174.47 -35.19 L 170.44 -35.19 L 170.44 -34.68 C 172.28 -34.68 174.32 -34.32 174.32 -32.39 L 174.32 -2.81 C 174.32 -0.87 172.28 -0.51 170.44 -0.51 Z M 221.29 -32.39 L 221.29 -12.29 L 204.46 -35.19 L 193.95 -35.19 L 193.95 -34.68 C 195.79 -34.68 197.83 -34.32 197.83 -32.39 L 197.83 -2.81 C 197.83 -0.87 195.79 -0.51 193.95 -0.51 L 193.95 0 L 203.74 0 L 203.74 -0.51 C 201.91 -0.51 199.87 -0.87 199.87 -2.81 L 199.87 -31.06 L 223.28 0.51 C 223.07 -1.89 224.3 -4.39 225.98 -5.92 L 223.33 -9.54 L 223.33 -32.39 C 223.33 -34.32 225.37 -34.68 227.2 -34.68 L 227.2 -35.19 L 217.41 -35.19 L 217.41 -34.68 C 219.25 -34.68 221.29 -34.32 221.29 -32.39 Z M 262.75 0 L 267.14 0 L 267.14 -0.51 C 265.3 -0.51 263.26 -0.87 263.26 -2.81 L 263.26 -14.28 C 263.26 -15.66 263.26 -16.83 263.77 -18.36 C 261.83 -17.03 258.67 -16.37 256.27 -16.32 L 252.25 -16.32 L 252.25 -15.81 C 254.08 -15.81 256.12 -15.45 256.12 -13.52 L 256.12 -6.63 C 256.12 -6.17 256.12 -5.76 256.17 -5.36 C 254.13 -3.67 252.7 -1.73 250.26 -1.73 C 245.77 -1.73 241.33 -9.59 241.33 -18 C 241.33 -26.27 244.29 -33.15 249.34 -33.15 C 254.49 -33.15 254.85 -28.15 258.98 -27.95 C 258.88 -30.4 260.86 -32.74 263.01 -35.29 C 257.19 -33.76 256.07 -35.7 250.46 -35.7 C 238.73 -35.7 233.78 -25.19 233.78 -16.73 C 233.78 -4.95 240.72 0.51 248.47 0.51 C 252.81 0.51 254.29 -1.63 257.29 -2.35 C 258.37 -0.82 260.2 0 262.75 0 Z" stroke-linecap="round" />
</g>
</g>
</g>
<g transform="matrix(1.9211538461538462 0 0 1.9211538461538462 640 374.6129290611658)" id="tagline-cea259bf-181e-4c11-afa7-2a56627bacf6-logo"  >
<g style=""  paint-order="stroke"   >
		<g transform="matrix(1 0 0 1 0 0)" id="tagline-cea259bf-181e-4c11-afa7-2a56627bacf6-logo-path-0"  >
<path style="stroke: none; stroke-width: 0; stroke-dasharray: none; stroke-linecap: butt; stroke-dashoffset: 0; stroke-linejoin: miter; stroke-miterlimit: 4; fill: rgb(4,31,30); fill-rule: nonzero; opacity: 1;"  paint-order="stroke"  transform=" translate(-22.080000000000002, 22.4)" d="M 12.74 -0.64 L 12.74 0 L 31.42 0 L 31.42 -0.64 C 29.12 -0.64 26.56 -1.09 26.56 -3.52 L 26.56 -41.92 C 32.19 -41.92 36.48 -37.44 40.7 -37.44 C 40.58 -40.32 40.45 -41.92 42.88 -44.8 C 41.09 -44.8 38.85 -44.16 37.12 -44.16 L 7.04 -44.16 C 5.31 -44.16 3.07 -44.8 1.28 -44.8 C 3.71 -41.92 3.58 -40.32 3.46 -37.44 C 7.68 -37.44 11.97 -41.92 17.6 -41.92 L 17.6 -3.52 C 17.6 -1.09 15.04 -0.64 12.74 -0.64 Z" stroke-linecap="round" />
</g>
</g>
</g>
<g transform="matrix(1.9211538461538462 0 0 1.9211538461538462 639.5696615384616 733.6208397175404)" id="tagline-0a54f8c7-56e2-4908-9c5e-b8e1a8c1493d-logo"  >
<g style=""  paint-order="stroke"   >
		<g transform="matrix(1 0 0 1 0 0)" id="tagline-0a54f8c7-56e2-4908-9c5e-b8e1a8c1493d-logo-path-0"  >
<path style="stroke: none; stroke-width: 0; stroke-dasharray: none; stroke-linecap: butt; stroke-dashoffset: 0; stroke-linejoin: miter; stroke-miterlimit: 4; fill: rgb(205,139,83); fill-rule: nonzero; opacity: 1;"  paint-order="stroke"  transform=" translate(-118.015, 11.2)" d="M 17.34 0.26 L 20.61 -0.51 L 20.61 -11.3 L 17.34 -10.53 L 17.34 -5.89 C 16.1 -3.23 13.92 -2.24 11.81 -2.24 C 7.97 -2.24 4.48 -6.14 4.48 -11.2 C 4.48 -16.26 8.26 -20.99 12.19 -20.99 C 15.3 -20.99 16.61 -18.43 17.47 -16.03 L 20.51 -18.59 C 19.2 -21.06 16.19 -22.66 12.19 -22.66 C 6.94 -22.66 1.15 -17.54 1.15 -11.2 C 1.15 -4.86 5.38 0.26 10.59 0.26 C 13.12 0.26 15.74 -1.15 17.34 -3.9 Z M 36.22 0 L 48.54 0 L 48.54 -1.54 L 39.49 -1.54 L 39.49 -11.07 L 46.72 -11.07 L 46.72 -12.61 L 39.49 -12.61 L 39.49 -20.86 L 48.54 -20.86 L 48.54 -22.4 L 36.22 -22.4 Z M 63.78 0 L 65.31 0 L 65.31 -17.18 L 80.16 0 L 81.18 0 L 81.18 -22.4 L 79.74 -22.4 L 79.74 -5.38 L 65.18 -22.4 L 63.78 -22.4 Z M 96.8 0 L 100.06 0 L 100.06 -22.4 L 96.8 -22.4 Z M 124.38 0.26 C 129.31 0.26 133.09 -3.52 133.09 -9.12 L 133.09 -22.4 L 131.42 -22.4 L 131.42 -10.14 C 131.42 -5.38 129.38 -2.05 125.18 -2.05 C 120.1 -2.05 118.94 -5.38 118.94 -10.14 L 118.94 -22.4 L 115.68 -22.4 L 115.68 -9.12 C 115.68 -3.52 119.46 0.26 124.38 0.26 Z M 160.35 -19.87 C 159.26 -21.38 158.14 -22.66 154.98 -22.66 C 151.26 -22.66 148.99 -19.68 148.99 -17.31 C 148.99 -12.06 158.08 -8.77 158.08 -4.9 C 158.08 -3.1 157.06 -1.73 154.72 -1.73 C 152.32 -1.73 150.37 -2.98 149.47 -4.51 L 148.32 -3.9 C 149.57 -1.47 151.55 0.26 154.72 0.26 C 158.88 0.26 161.15 -2.56 161.15 -5.57 C 161.15 -10.85 151.94 -14.18 151.94 -18.24 C 151.94 -19.87 153.28 -21.22 154.94 -21.22 C 156.29 -21.22 157.31 -19.65 158.05 -18.11 Z M 196.61 0 L 198.27 0 L 201.12 -6.69 L 210.53 -6.69 L 213.38 0 L 216.64 0 L 207.04 -22.66 L 206.24 -22.66 L 200.1 -8.22 L 200.1 -8.19 Z M 201.79 -8.22 L 205.86 -17.73 L 209.89 -8.22 Z M 231.62 0 L 234.88 0 L 234.88 -22.4 L 231.62 -22.4 Z" stroke-linecap="round" />
</g>
</g>
</g>
</svg>